<svg xmlns="http://www.w3.org/2000/svg" xmlns:xlink="http://www.w3.org/1999/xlink" width="228.58" height="231.498" viewBox="0 0 228.58 231.498">
  <defs>
    <clipPath id="clip-path">
      <rect id="Rectangle_8" data-name="Rectangle 8" width="228.556" height="228.577" fill="#fff"/>
    </clipPath>
    <clipPath id="clip-index_rotate_text">
      <rect width="228.58" height="231.498"/>
    </clipPath>
  </defs>
  <g id="index_rotate_text" clip-path="url(#clip-index_rotate_text)">
    <g id="Group_18" data-name="Group 18" transform="translate(-602 -810)">
      <g id="index_rotate_text-2" data-name="index_rotate_text" transform="translate(602 811)">
        <g id="Group_5" data-name="Group 5" transform="translate(0 0)">
          <g id="Group_4" data-name="Group 4" clip-path="url(#clip-path)">
            <text id="_" data-name="・" transform="matrix(0.965, -0.263, 0.263, 0.965, 79.455, 18.684)" fill="#fff" font-size="16" font-family="KozGoPr6N-Regular, Kozuka Gothic Pr6N"><tspan x="0" y="0">・</tspan></text>
            <text id="_2" data-name=" " transform="translate(93.557 15.416) rotate(-10.577)" fill="#fff" font-size="15" font-family="ChicagoMakers-Medium, Chicago Makers" font-weight="500"><tspan x="0" y="0"> </tspan></text>
            <text id="W" transform="translate(99.391 13.763) rotate(-2.04)" fill="#fff" font-size="15" font-family="ChicagoMakers-Medium, Chicago Makers" font-weight="500"><tspan x="0" y="0">W</tspan></text>
            <text id="E" transform="translate(122.904 13.47) rotate(8.237)" fill="#fff" font-size="15" font-family="ChicagoMakers-Medium, Chicago Makers" font-weight="500"><tspan x="0" y="0">E</tspan></text>
          </g>
        </g>
        <text id="_3" data-name=" " transform="translate(136.547 15.72) rotate(13.893)" fill="#fff" font-size="15" font-family="ChicagoMakers-Medium, Chicago Makers" font-weight="500"><tspan x="0" y="0"> </tspan></text>
        <text id="A" transform="matrix(0.936, 0.352, -0.352, 0.936, 142.482, 16.941)" fill="#fff" font-size="15" font-family="ChicagoMakers-Medium, Chicago Makers" font-weight="500"><tspan x="0" y="0">A</tspan></text>
        <text id="R" transform="matrix(0.871, 0.492, -0.492, 0.871, 158.21, 23.059)" fill="#fff" font-size="15" font-family="ChicagoMakers-Medium, Chicago Makers" font-weight="500"><tspan x="0" y="0">R</tspan></text>
        <text id="E-2" data-name="E" transform="matrix(0.796, 0.605, -0.605, 0.796, 170.502, 30.121)" fill="#fff" font-size="15" font-family="ChicagoMakers-Medium, Chicago Makers" font-weight="500"><tspan x="0" y="0">E</tspan></text>
        <text id="_4" data-name=" " transform="translate(181.351 38.705) rotate(42.823)" fill="#fff" font-size="15" font-family="ChicagoMakers-Medium, Chicago Makers" font-weight="500"><tspan x="0" y="0"> </tspan></text>
        <text id="G" transform="translate(185.907 42.7) rotate(48.93)" fill="#fff" font-size="15" font-family="ChicagoMakers-Medium, Chicago Makers" font-weight="500"><tspan x="0" y="0">G</tspan></text>
        <text id="E-3" data-name="E" transform="matrix(0.547, 0.837, -0.837, 0.547, 195.606, 54.029)" fill="#fff" font-size="15" font-family="ChicagoMakers-Medium, Chicago Makers" font-weight="500"><tspan x="0" y="0">E</tspan></text>
        <text id="T" transform="translate(202.775 65.068) rotate(64.581)" fill="#fff" font-size="15" font-family="ChicagoMakers-Medium, Chicago Makers" font-weight="500"><tspan x="0" y="0">T</tspan></text>
        <text id="T-2" data-name="T" transform="matrix(0.298, 0.954, -0.954, 0.298, 208.767, 77.85)" fill="#fff" font-size="15" font-family="ChicagoMakers-Medium, Chicago Makers" font-weight="500"><tspan x="0" y="0">T</tspan></text>
        <g id="Group_7" data-name="Group 7" transform="translate(0 0)">
          <g id="Group_6" data-name="Group 6" clip-path="url(#clip-path)">
            <text id="I" transform="translate(212.73 91.31) rotate(78.661)" fill="#fff" font-size="15" font-family="ChicagoMakers-Medium, Chicago Makers" font-weight="500"><tspan x="0" y="0">I</tspan></text>
            <text id="N" transform="matrix(0.091, 0.996, -0.996, 0.091, 214.273, 98.303)" fill="#fff" font-size="15" font-family="ChicagoMakers-Medium, Chicago Makers" font-weight="500"><tspan x="0" y="0">N</tspan></text>
            <text id="G-2" data-name="G" transform="matrix(-0.052, 0.999, -0.999, -0.052, 215.522, 112.647)" fill="#fff" font-size="15" font-family="ChicagoMakers-Medium, Chicago Makers" font-weight="500"><tspan x="0" y="0">G</tspan></text>
            <text id="_5" data-name=" " transform="translate(214.363 128.25) rotate(99.139)" fill="#fff" font-size="15" font-family="ChicagoMakers-Medium, Chicago Makers" font-weight="500"><tspan x="0" y="0"> </tspan></text>
            <text id="M" transform="translate(213.729 134.189) rotate(106.298)" fill="#fff" font-size="15" font-family="ChicagoMakers-Medium, Chicago Makers" font-weight="500"><tspan x="0" y="0">M</tspan></text>
          </g>
        </g>
        <text id="A-2" data-name="A" transform="matrix(-0.445, 0.896, -0.896, -0.445, 208.349, 151.994)" fill="#fff" font-size="15" font-family="ChicagoMakers-Medium, Chicago Makers" font-weight="500"><tspan x="0" y="0">A</tspan></text>
        <text id="R-2" data-name="R" transform="translate(200.684 167.005) rotate(125.201)" fill="#fff" font-size="15" font-family="ChicagoMakers-Medium, Chicago Makers" font-weight="500"><tspan x="0" y="0">R</tspan></text>
        <text id="R-3" data-name="R" transform="translate(192.499 178.498) rotate(133.162)" fill="#fff" font-size="15" font-family="ChicagoMakers-Medium, Chicago Makers" font-weight="500"><tspan x="0" y="0">R</tspan></text>
        <text id="I-2" data-name="I" transform="translate(182.601 188.699) rotate(139.185)" fill="#fff" font-size="15" font-family="ChicagoMakers-Medium, Chicago Makers" font-weight="500"><tspan x="0" y="0">I</tspan></text>
        <text id="E-4" data-name="E" transform="matrix(-0.818, 0.575, -0.575, -0.818, 177.285, 193.429)" fill="#fff" font-size="15" font-family="ChicagoMakers-Medium, Chicago Makers" font-weight="500"><tspan x="0" y="0">E</tspan></text>
        <text id="D" transform="translate(166.493 200.96) rotate(152.617)" fill="#fff" font-size="15" font-family="ChicagoMakers-Medium, Chicago Makers" font-weight="500"><tspan x="0" y="0">D</tspan></text>
        <text id="_6" data-name=" " transform="translate(153.26 207.461) rotate(158.569)" fill="#fff" font-size="15" font-family="ChicagoMakers-Medium, Chicago Makers" font-weight="500"><tspan x="0" y="0"> </tspan></text>
        <text id="_7" data-name=" " transform="matrix(-0.951, 0.308, -0.308, -0.951, 147.558, 209.641)" fill="#fff" font-size="15" font-family="ChicagoMakers-Medium, Chicago Makers" font-weight="500"><tspan x="0" y="0"> </tspan></text>
        <g id="Group_9" data-name="Group 9" transform="translate(0 0)">
          <g id="Group_8" data-name="Group 8" clip-path="url(#clip-path)">
            <text id="_8" data-name="・" transform="matrix(-0.973, 0.23, -0.23, -0.973, 146.046, 210.925)" fill="#fff" font-size="16" font-family="KozGoPr6N-Regular, Kozuka Gothic Pr6N"><tspan x="0" y="0">・</tspan></text>
            <text id="_9" data-name=" " transform="matrix(-0.989, 0.15, -0.15, -0.989, 131.804, 213.726)" fill="#fff" font-size="15" font-family="ChicagoMakers-Medium, Chicago Makers" font-weight="500"><tspan x="0" y="0"> </tspan></text>
            <text id="W-2" data-name="W" transform="translate(125.921 215.023) rotate(179.07)" fill="#fff" font-size="15" font-family="ChicagoMakers-Medium, Chicago Makers" font-weight="500"><tspan x="0" y="0">W</tspan></text>
            <text id="E-5" data-name="E" transform="translate(102.404 214.691) rotate(-169.828)" fill="#fff" font-size="15" font-family="ChicagoMakers-Medium, Chicago Makers" font-weight="500"><tspan x="0" y="0">E</tspan></text>
          </g>
        </g>
        <text id="_10" data-name=" " transform="matrix(-0.962, -0.273, 0.273, -0.962, 88.813, 211.975)" fill="#fff" font-size="15" font-family="ChicagoMakers-Medium, Chicago Makers" font-weight="500"><tspan x="0" y="0"> </tspan></text>
        <text id="A-3" data-name="A" transform="translate(82.967 210.568) rotate(-157.424)" fill="#fff" font-size="15" font-family="ChicagoMakers-Medium, Chicago Makers" font-weight="500"><tspan x="0" y="0">A</tspan></text>
        <text id="R-4" data-name="R" transform="matrix(-0.853, -0.521, 0.521, -0.853, 67.42, 203.903)" fill="#fff" font-size="15" font-family="ChicagoMakers-Medium, Chicago Makers" font-weight="500"><tspan x="0" y="0">R</tspan></text>
        <text id="E-6" data-name="E" transform="translate(55.388 196.432) rotate(-140.853)" fill="#fff" font-size="15" font-family="ChicagoMakers-Medium, Chicago Makers" font-weight="500"><tspan x="0" y="0">E</tspan></text>
        <text id="_11" data-name=" " transform="translate(44.837 187.497) rotate(-135.255)" fill="#fff" font-size="15" font-family="ChicagoMakers-Medium, Chicago Makers" font-weight="500"><tspan x="0" y="0"> </tspan></text>
        <text id="G-3" data-name="G" transform="translate(40.419 183.348) rotate(-129.145)" fill="#fff" font-size="15" font-family="ChicagoMakers-Medium, Chicago Makers" font-weight="500"><tspan x="0" y="0">G</tspan></text>
        <text id="E-7" data-name="E" transform="matrix(-0.519, -0.855, 0.855, -0.519, 31.134, 171.747)" fill="#fff" font-size="15" font-family="ChicagoMakers-Medium, Chicago Makers" font-weight="500"><tspan x="0" y="0">E</tspan></text>
        <text id="T-3" data-name="T" transform="translate(24.29 160.383) rotate(-113.452)" fill="#fff" font-size="15" font-family="ChicagoMakers-Medium, Chicago Makers" font-weight="500"><tspan x="0" y="0">T</tspan></text>
        <g id="Group_11" data-name="Group 11" transform="translate(0 0)">
          <g id="Group_10" data-name="Group 10" clip-path="url(#clip-path)">
            <text id="T-4" data-name="T" transform="translate(18.75 147.435) rotate(-105.409)" fill="#fff" font-size="15" font-family="ChicagoMakers-Medium, Chicago Makers" font-weight="500"><tspan x="0" y="0">T</tspan></text>
            <text id="I-3" data-name="I" transform="translate(15.24 133.801) rotate(-99.363)" fill="#fff" font-size="15" font-family="ChicagoMakers-Medium, Chicago Makers" font-weight="500"><tspan x="0" y="0">I</tspan></text>
            <text id="N-2" data-name="N" transform="translate(13.953 126.85) rotate(-93.309)" fill="#fff" font-size="15" font-family="ChicagoMakers-Medium, Chicago Makers" font-weight="500"><tspan x="0" y="0">N</tspan></text>
            <text id="G-4" data-name="G" transform="matrix(0.085, -0.996, 0.996, 0.085, 13.173, 112.471)" fill="#fff" font-size="15" font-family="ChicagoMakers-Medium, Chicago Makers" font-weight="500"><tspan x="0" y="0">G</tspan></text>
            <text id="_12" data-name=" " transform="matrix(0.192, -0.981, 0.981, 0.192, 14.859, 96.901)" fill="#fff" font-size="15" font-family="ChicagoMakers-Medium, Chicago Makers" font-weight="500"><tspan x="0" y="0"> </tspan></text>
            <text id="M-2" data-name="M" transform="translate(15.7 90.964) rotate(-71.748)" fill="#fff" font-size="15" font-family="ChicagoMakers-Medium, Chicago Makers" font-weight="500"><tspan x="0" y="0">M</tspan></text>
          </g>
        </g>
        <text id="A-4" data-name="A" transform="translate(21.656 73.401) rotate(-61.661)" fill="#fff" font-size="15" font-family="ChicagoMakers-Medium, Chicago Makers" font-weight="500"><tspan x="0" y="0">A</tspan></text>
        <text id="R-5" data-name="R" transform="translate(29.844 58.611) rotate(-52.866)" fill="#fff" font-size="15" font-family="ChicagoMakers-Medium, Chicago Makers" font-weight="500"><tspan x="0" y="0">R</tspan></text>
        <text id="R-6" data-name="R" transform="translate(38.412 47.404) rotate(-44.915)" fill="#fff" font-size="15" font-family="ChicagoMakers-Medium, Chicago Makers" font-weight="500"><tspan x="0" y="0">R</tspan></text>
        <text id="I-4" data-name="I" transform="matrix(0.778, -0.628, 0.628, 0.778, 48.644, 37.543)" fill="#fff" font-size="15" font-family="ChicagoMakers-Medium, Chicago Makers" font-weight="500"><tspan x="0" y="0">I</tspan></text>
        <text id="E-8" data-name="E" transform="translate(54.128 32.99) rotate(-33.139)" fill="#fff" font-size="15" font-family="ChicagoMakers-Medium, Chicago Makers" font-weight="500"><tspan x="0" y="0">E</tspan></text>
        <text id="D-2" data-name="D" transform="translate(65.191 25.813) rotate(-25.422)" fill="#fff" font-size="15" font-family="ChicagoMakers-Medium, Chicago Makers" font-weight="500"><tspan x="0" y="0">D</tspan></text>
        <text id="_13" data-name=" " transform="translate(78.595 19.784) rotate(-19.493)" fill="#fff" font-size="15" font-family="ChicagoMakers-Medium, Chicago Makers" font-weight="500"><tspan x="0" y="0"> </tspan></text>
      </g>
    </g>
  </g>
</svg>
