<svg xmlns="http://www.w3.org/2000/svg" xmlns:xlink="http://www.w3.org/1999/xlink" width="539.448" height="221.205" viewBox="0 0 539.448 221.205">
  <defs>
    <clipPath id="clip-path">
      <rect id="Rectangle_48" data-name="Rectangle 48" width="539.448" height="189.205" fill="#c6ac9d"/>
    </clipPath>
  </defs>
  <g id="index_title" transform="translate(-658.847 -298.795)">
    <text id="Invitation" transform="translate(818 501)" fill="#eac398" font-size="55" font-family="ChicagoMakers-Medium, Chicago Makers" font-weight="500"><tspan x="0" y="0">Invitation</tspan></text>
    <g id="Group_111" data-name="Group 111" transform="translate(658.847 298.795)">
      <g id="Group_110" data-name="Group 110" transform="translate(0 0)" clip-path="url(#clip-path)">
        <path id="Path_18782" data-name="Path 18782" d="M130.516,125a134.439,134.439,0,0,0,21.353-23.509,272.146,272.146,0,0,0,18.757-29.74A284.558,284.558,0,0,0,185.307,40.5a209.775,209.775,0,0,0,9.064-27.852,3.591,3.591,0,0,1,1.306-1.983,3.461,3.461,0,0,1,2.187-.85,2.1,2.1,0,0,1,1.778.85,2.2,2.2,0,0,1,.378,1.983,208.16,208.16,0,0,1-9.536,29.079,315.508,315.508,0,0,1-15.185,32.2,259.556,259.556,0,0,1-19.465,30.684,143.229,143.229,0,0,1-22.518,24.548,65.486,65.486,0,0,1-14.083,9.253A34.084,34.084,0,0,1,104.394,142c-6.279,0-10.858-1.857-13.69-5.57a28.642,28.642,0,0,1-5.4-13.5,110.378,110.378,0,0,1-19.528,13.879A39.077,39.077,0,0,1,47.007,142q-7.766,0-11.534-3.588a17.1,17.1,0,0,1-4.972-8.875,34.187,34.187,0,0,1-.5-11.424,91.419,91.419,0,0,1,1.92-11.235A196.1,196.1,0,0,1,39.6,82.8q5.24-13.69,11.88-27.758t14.162-27.1A178.906,178.906,0,0,1,80.4,5.854,118.6,118.6,0,0,0,68.218,7.081,127.939,127.939,0,0,0,53.505,10.2a137.295,137.295,0,0,0-15.389,5.193,78.7,78.7,0,0,0-14.241,7.459,54.18,54.18,0,0,0-11.2,9.913A29.78,29.78,0,0,0,6.3,45.319q-1.3,5.476,1.275,8.5,2.6,3.021,8.45,3.021a2.1,2.1,0,0,1,1.778.85,2.246,2.246,0,0,1,.378,1.983,3.539,3.539,0,0,1-1.322,1.983,3.421,3.421,0,0,1-2.172.85C9.4,62.5,5.4,60.991,2.727,57.97.036,54.949-.657,50.732.618,45.319A36.831,36.831,0,0,1,8.077,30.212,57.687,57.687,0,0,1,21.122,18.6a92.122,92.122,0,0,1,16.585-8.592,130.1,130.1,0,0,1,17.97-5.759,159.124,159.124,0,0,1,17.482-3.21A123.688,123.688,0,0,1,88.029,0a1.829,1.829,0,0,1,1.92,1.039,3.835,3.835,0,0,1,.11,2.36c-.063.252-.944,2.014-2.675,5.287-1.715,3.289-3.95,7.553-6.735,12.84q-4.131,7.931-9.221,18.222T61.436,61.18Q55.8,73.831,50.39,87.427a223.5,223.5,0,0,0-9.457,30.779,26.712,26.712,0,0,0-.456,9.064,14.739,14.739,0,0,0,2.486,6.231q1.983,2.832,6.892,2.832,6.609,0,15.924-5.476A123.148,123.148,0,0,0,84.9,116.7a55.44,55.44,0,0,1,.472-8.686A81.321,81.321,0,0,1,86.849,99.7a101.45,101.45,0,0,1,3.021-9.913Q91.9,84.028,94.78,77.8q2.927-6.231,6.53-12.368a64.861,64.861,0,0,1,8.072-10.952,43.691,43.691,0,0,1,9.426-7.836,19.738,19.738,0,0,1,10.433-3.021c3.021,0,4.862.976,5.539,2.927a12.785,12.785,0,0,1,.016,7.081,59.557,59.557,0,0,1-4.548,11.991,139.229,139.229,0,0,1-8.387,14.729q-5.1,7.836-11.456,16.05a186.917,186.917,0,0,1-13.611,15.578,55.881,55.881,0,0,0-.472,9.536,21.887,21.887,0,0,0,1.574,7.742,12.256,12.256,0,0,0,3.855,5.193,10.048,10.048,0,0,0,6.263,1.888q9.064,0,22.5-11.33m-1.385-71.377c.142-.629.3-1.511.441-2.644.126-1.133-.283-1.7-1.306-1.7q-2.077,0-5.885,3.682T113.143,66.09a64.054,64.054,0,0,0-2.99,5.854q-1.747,3.777-3.745,8.592c-1.322,3.21-2.644,6.64-3.934,10.291-1.322,3.651-2.47,7.364-3.509,11.141q5.736-6.609,10.826-13.407,5.122-6.8,9.079-13.218A118.954,118.954,0,0,0,125.5,63.352a50.939,50.939,0,0,0,3.635-9.725" transform="translate(-0.004 0.002)" fill="#c6ac9d"/>
        <path id="Path_18783" data-name="Path 18783" d="M75.537,35.417a3.291,3.291,0,0,1,3.084-1.888,2.371,2.371,0,0,1,1.81.755,2.24,2.24,0,0,1,.362,2.077,2.371,2.371,0,0,1-.425.944c-2.832,4.532-6.011,9.3-9.5,14.256a96.24,96.24,0,0,1-11.629,13.6,61.834,61.834,0,0,1-13.816,10.1,33.911,33.911,0,0,1-16.145,3.965,21.783,21.783,0,0,1-9.819-1.983,14.659,14.659,0,0,1-6.09-5.382,16.792,16.792,0,0,1-2.439-8.025,33.413,33.413,0,0,1,.928-9.913A67.446,67.446,0,0,1,18.18,38.06a87.038,87.038,0,0,1,11-16.145A67.071,67.071,0,0,1,43.294,9.358,28.429,28.429,0,0,1,59.14,4.26,15.176,15.176,0,0,1,68.8,7.281c2.533,2.014,3.3,5.177,2.3,9.441a25.477,25.477,0,0,1-5.429,10.1A52.288,52.288,0,0,1,55.3,36.361,55.759,55.759,0,0,1,41.06,43.442,53,53,0,0,1,25.592,46.18c-.629,1.511-1.164,3.005-1.621,4.437-.472,1.448-.85,2.817-1.149,4.06a48.059,48.059,0,0,0-1.07,6.515,18.016,18.016,0,0,0,.346,6.042A8.6,8.6,0,0,0,24.8,71.766a8.51,8.51,0,0,0,5.822,1.794,28.081,28.081,0,0,0,14.02-3.777,58.362,58.362,0,0,0,12.321-9.441A91.566,91.566,0,0,0,67.354,47.974q4.721-6.7,8.183-12.557M65.34,17.1c.661-2.769.142-4.642-1.574-5.665a10.227,10.227,0,0,0-5.224-1.511,16.108,16.108,0,0,0-9.3,3.4A48.616,48.616,0,0,0,40.4,21.538a84.376,84.376,0,0,0-7.286,10.008q-3.21,5.193-5.051,8.969A47.24,47.24,0,0,0,40.84,37.966a51.308,51.308,0,0,0,11.9-5.948,41.238,41.238,0,0,0,8.371-7.459A18.668,18.668,0,0,0,65.34,17.1" transform="translate(160.089 62.775)" fill="#c6ac9d"/>
        <path id="Path_18784" data-name="Path 18784" d="M64.6,132.273a3.964,3.964,0,0,1-4.06-2.832,17.585,17.585,0,0,1-.881-6.609,51.384,51.384,0,0,1,.85-7.553c.472-2.518.865-4.469,1.2-5.854l1.212-5.1q-2.691,4.154-6.294,9.064a74.234,74.234,0,0,1-7.915,9.064,48.041,48.041,0,0,1-9.127,6.987,19.325,19.325,0,0,1-9.929,2.832A16.216,16.216,0,0,1,20.9,130.2a12.941,12.941,0,0,1-4.91-5.57A18.557,18.557,0,0,1,14.4,116.6a40.492,40.492,0,0,1,1.164-9.253,75.662,75.662,0,0,1,5.791-15.3A92.865,92.865,0,0,1,31.584,75.624,64.935,64.935,0,0,1,44.864,62.6q7.27-5.287,14.839-5.287c4.784,0,8.23,1.574,10.307,4.721A19.515,19.515,0,0,1,73.126,73.17q.968-2.455,3.32-8.78,2.337-6.326,5.57-14.351t7.1-16.806q3.895-8.78,7.758-15.956a92.266,92.266,0,0,1,7.443-11.9c2.392-3.147,4.516-4.721,6.4-4.721a1.774,1.774,0,0,1,1.668.944,2.541,2.541,0,0,1,.3,1.888l-.126.566q-4.272,10.008-7.632,18.222T97.185,40.975q-4.367,10.48-8.7,21.621-10.1,25.869-15.7,42.3c-1.259,3.777-2.266,6.924-2.99,9.441s-1.275,4.595-1.668,6.231q-.519,2.266-.755,3.588a9.11,9.11,0,0,0-.173,1.888q2.785-1.322,7.065-6.231t8.513-10.858c2.832-3.965,5.476-7.868,7.978-11.707,2.471-3.839,4.343-6.766,5.57-8.78A3.291,3.291,0,0,1,99.4,86.576a2.1,2.1,0,0,1,1.778.85,2.2,2.2,0,0,1,.393,1.983,1.746,1.746,0,0,1-.425.944,17.13,17.13,0,0,1-1.1,1.888c-.708,1.133-1.652,2.644-2.88,4.532q-1.794,2.832-4.249,6.42t-5.051,7.364c-1.117,1.511-2.6,3.462-4.406,5.854Q80.726,120,77.5,123.587a43.619,43.619,0,0,1-6.64,6.137c-2.3,1.7-4.375,2.549-6.263,2.549m6.436-53.438c.393-1.133.787-2.266,1.2-3.4a2.944,2.944,0,0,1-2.6,1.322,2.014,2.014,0,0,1-2.282-2.266,17.97,17.97,0,0,1-.2-2.36,10.612,10.612,0,0,0-1.1-4.06,9.762,9.762,0,0,0-2.3-3.493,5.983,5.983,0,0,0-4.422-1.605,12.2,12.2,0,0,0-7.286,2.738A39.806,39.806,0,0,0,44.9,72.792a82.715,82.715,0,0,0-6.656,9.725Q35.077,87.9,32.512,93.185,29.916,98.473,28.2,103a60.341,60.341,0,0,0-2.36,7.175c-.362,1.511-.661,3.21-.928,5.1a19.937,19.937,0,0,0-.047,5.382,8.708,8.708,0,0,0,1.637,4.249,4.851,4.851,0,0,0,4.123,1.7,15.061,15.061,0,0,0,7.742-2.36,40.247,40.247,0,0,0,7.789-6.231,71.475,71.475,0,0,0,7.38-8.78q3.517-4.91,6.562-9.725c2.014-3.21,3.855-6.294,5.492-9.253s2.958-5.445,3.934-7.459l.283-.378q.637-1.888,1.227-3.588" transform="translate(212.193 9.727)" fill="#c6ac9d"/>
        <path id="Path_18785" data-name="Path 18785" d="M69.229,132.273a3.964,3.964,0,0,1-4.06-2.832,17.585,17.585,0,0,1-.881-6.609,51.377,51.377,0,0,1,.85-7.553c.472-2.518.865-4.469,1.2-5.854l1.212-5.1q-2.691,4.154-6.294,9.064a74.231,74.231,0,0,1-7.915,9.064,48.041,48.041,0,0,1-9.127,6.987,19.325,19.325,0,0,1-9.929,2.832,16.216,16.216,0,0,1-8.749-2.077,12.941,12.941,0,0,1-4.91-5.57,18.557,18.557,0,0,1-1.589-8.025,40.494,40.494,0,0,1,1.164-9.253,75.661,75.661,0,0,1,5.791-15.3A92.863,92.863,0,0,1,36.216,75.624,64.935,64.935,0,0,1,49.5,62.6q7.27-5.287,14.839-5.287c4.784,0,8.23,1.574,10.307,4.721A19.515,19.515,0,0,1,77.758,73.17q.968-2.455,3.32-8.78,2.337-6.326,5.57-14.351t7.1-16.806q3.895-8.78,7.758-15.956a92.266,92.266,0,0,1,7.443-11.9c2.392-3.147,4.516-4.721,6.4-4.721a1.774,1.774,0,0,1,1.668.944,2.541,2.541,0,0,1,.3,1.888l-.126.566q-4.272,10.008-7.632,18.222t-7.742,18.694q-4.367,10.48-8.7,21.621-10.1,25.869-15.7,42.3c-1.259,3.777-2.266,6.924-2.99,9.441s-1.275,4.595-1.668,6.231q-.519,2.266-.755,3.588a9.11,9.11,0,0,0-.173,1.888q2.785-1.322,7.065-6.231T87.4,108.952c2.832-3.965,5.476-7.868,7.978-11.707,2.47-3.839,4.343-6.766,5.57-8.78a3.291,3.291,0,0,1,3.084-1.888,2.1,2.1,0,0,1,1.778.85,2.2,2.2,0,0,1,.393,1.983,1.746,1.746,0,0,1-.425.944,17.131,17.131,0,0,1-1.1,1.888c-.708,1.133-1.652,2.644-2.88,4.532q-1.794,2.832-4.249,6.42T92.5,110.558c-1.117,1.511-2.6,3.462-4.406,5.854q-2.738,3.588-5.964,7.175a43.619,43.619,0,0,1-6.64,6.137c-2.3,1.7-4.375,2.549-6.263,2.549m6.436-53.438c.393-1.133.787-2.266,1.2-3.4a2.944,2.944,0,0,1-2.6,1.322,2.014,2.014,0,0,1-2.282-2.266,17.97,17.97,0,0,1-.2-2.36,10.612,10.612,0,0,0-1.1-4.06,9.762,9.762,0,0,0-2.3-3.493,5.984,5.984,0,0,0-4.422-1.605,12.2,12.2,0,0,0-7.286,2.738,39.806,39.806,0,0,0-7.144,7.081,82.715,82.715,0,0,0-6.656,9.725Q39.709,87.9,37.144,93.185q-2.6,5.287-4.312,9.819a60.334,60.334,0,0,0-2.36,7.175c-.362,1.511-.661,3.21-.928,5.1a19.938,19.938,0,0,0-.047,5.382,8.708,8.708,0,0,0,1.637,4.249,4.851,4.851,0,0,0,4.123,1.7A15.061,15.061,0,0,0,43,124.248a40.246,40.246,0,0,0,7.789-6.231,71.474,71.474,0,0,0,7.38-8.78q3.517-4.91,6.562-9.725c2.014-3.21,3.855-6.294,5.492-9.253s2.958-5.445,3.934-7.459l.283-.378q.637-1.888,1.227-3.588" transform="translate(280.448 9.727)" fill="#c6ac9d"/>
        <path id="Path_18786" data-name="Path 18786" d="M30.317,94.078a5.271,5.271,0,0,1-4.878-2.455,12.641,12.641,0,0,1-1.715-5.948,32.857,32.857,0,0,1,.409-7.27c.409-2.518.8-4.595,1.2-6.231.33-1.385.976-3.619,1.951-6.7,1.007-3.084,2.2-6.577,3.635-10.48s3.037-7.931,4.847-12.085a107.315,107.315,0,0,1,5.728-11.424,49.546,49.546,0,0,1,6.074-8.5c2.03-2.2,4.06-3.3,6.074-3.3.991,0,1.621.346,1.825,1.039a4.423,4.423,0,0,1,.016,2.36c-1.589,3.525-3.021,6.735-4.264,9.63q-1.888,4.343-4.154,9.913T42.465,54.047q-2.384,6.042-5.146,13.312a108.833,108.833,0,0,0-4.186,13.312,37.09,37.09,0,0,0-.976,5.287,6.218,6.218,0,0,0,.126,2.266,6.887,6.887,0,0,0,1.762-1.039,37.066,37.066,0,0,0,3.21-2.832,66.682,66.682,0,0,0,4.988-5.476c1.935-2.329,4.2-5.319,6.845-8.969,1.857-2.518,3.572-4.941,5.114-7.27,1.574-2.329,2.864-4.374,3.918-6.137,1.385-2.14,2.707-4.217,3.934-6.231a3.306,3.306,0,0,1,3.084-1.888,2.317,2.317,0,0,1,1.81.755,2.189,2.189,0,0,1,.362,2.077,20.93,20.93,0,0,1-2.156,3.871c-1.306,2.077-2.738,4.312-4.327,6.7-1.558,2.392-3.084,4.626-4.5,6.7-1.448,2.077-2.36,3.367-2.722,3.871A153.058,153.058,0,0,1,42.135,86.525q-7.081,7.553-11.817,7.553M62.607,8.162a6.459,6.459,0,0,1-2.376,3.588A6.118,6.118,0,0,1,56.3,13.26a3.6,3.6,0,0,1-3.147-1.511,4.306,4.306,0,0,1-.567-3.588,6.3,6.3,0,0,1,2.25-3.493,6.012,6.012,0,0,1,3.84-1.416,3.958,3.958,0,0,1,3.242,1.416,3.793,3.793,0,0,1,.692,3.493" transform="translate(348.801 47.922)" fill="#c6ac9d"/>
        <path id="Path_18787" data-name="Path 18787" d="M91.28,54.524q2.785-3.777,5.114-7.27c1.574-2.329,2.864-4.374,3.918-6.137q2.077-3.21,3.934-6.231a3.3,3.3,0,0,1,3.1-1.888,2.284,2.284,0,0,1,1.794.755,2.231,2.231,0,0,1,.362,2.077,22.035,22.035,0,0,1-2.156,3.871q-1.959,3.116-4.327,6.7c-1.574,2.392-3.068,4.626-4.516,6.7-1.432,2.077-2.345,3.367-2.707,3.871A150.174,150.174,0,0,1,84.309,71.141q-7.057,7.553-11.786,7.553c-3.163,0-4.988-1.259-5.539-3.777a17.421,17.421,0,0,1,.157-7.742,66.766,66.766,0,0,1,2.832-8.78c1.275-3.336,2.738-7.081,4.343-11.235,1.495-3.651,2.99-7.38,4.469-11.235a83.825,83.825,0,0,0,3.336-10.48c.236-1.007.472-2.109.692-3.3a20.411,20.411,0,0,0,.346-3.4A5.51,5.51,0,0,0,82.484,16,2.392,2.392,0,0,0,80.3,14.87q-2.478,0-6.373,3.682a83.95,83.95,0,0,0-8.387,9.536c-3.006,3.9-6.027,8.214-9.111,12.935Q51.823,48.1,47.677,54.9,43.5,61.7,40.249,67.459c-2.172,3.839-3.745,6.7-4.673,8.592a2.835,2.835,0,0,1-1.637,2.077,5.816,5.816,0,0,1-2.392.566,5.275,5.275,0,0,1-4.406-2.927,15.611,15.611,0,0,1-1.526-5.948,31.892,31.892,0,0,1,.33-6.987c.393-2.392.771-4.406,1.164-6.042.33-1.385.976-3.619,1.951-6.7.991-3.084,2.187-6.577,3.635-10.48,1.432-3.9,3.037-7.931,4.847-12.085A107.321,107.321,0,0,1,43.271,16.1a48.7,48.7,0,0,1,6.074-8.5c2.03-2.2,4.06-3.3,6.074-3.3,1.762,0,2.423.881,2.014,2.644l-.173.755q-2.384,5.287-4.28,9.63-1.865,4.343-4.138,9.913T44.231,38.663Q41.4,45.838,38.8,52.825a120.044,120.044,0,0,0-4.3,14.162q6.987-11.9,14.241-23.792A188.71,188.71,0,0,1,64.97,20.535a47.922,47.922,0,0,1,9.017-8.592,15.4,15.4,0,0,1,8.78-2.738,9.733,9.733,0,0,1,6.011,1.7,9.153,9.153,0,0,1,3.179,4.532,18.7,18.7,0,0,1,.787,6.609,40.725,40.725,0,0,1-1.117,7.931,95.718,95.718,0,0,1-4.673,14.162c-2.093,5.035-4.154,9.819-6.247,14.351q-1.605,3.588-3.352,7.364t-2.88,6.987A6.866,6.866,0,0,0,76.221,71.8a36.737,36.737,0,0,0,3.226-2.832,69.647,69.647,0,0,0,4.988-5.476q2.9-3.493,6.845-8.969" transform="translate(376.477 63.306)" fill="#c6ac9d"/>
        <path id="Path_18788" data-name="Path 18788" d="M89.584,48.822c-2,2.644-4.233,5.4-6.656,8.214a70.211,70.211,0,0,1-7.915,7.836,42.836,42.836,0,0,1-8.843,5.854,21.446,21.446,0,0,1-9.693,2.266,17.978,17.978,0,0,1-8.45-1.778A12.3,12.3,0,0,1,42.96,66.3a17.044,17.044,0,0,1-1.935-7.38,31.452,31.452,0,0,1,.913-8.954,64.192,64.192,0,0,1,5.728-14.65A79.8,79.8,0,0,1,57.7,20.419,61.357,61.357,0,0,1,70.639,8.885,25.728,25.728,0,0,1,84.864,4.259q6.609,0,10.039,4.626c2.282,3.1,2.911,6.829,1.857,11.251a3.668,3.668,0,0,1-3.352,3.006,2.069,2.069,0,0,1-1.935-.566,2.034,2.034,0,0,1-.456-2.077,15.99,15.99,0,0,0-.677-7.081c-.771-2.329-2.612-3.478-5.492-3.478q-5.311,0-10.669,5.083a69.3,69.3,0,0,0-9.945,12.085,102.249,102.249,0,0,0-7.789,14.162A69.451,69.451,0,0,0,52.291,52.41a35.378,35.378,0,0,0-.834,5.114,17.066,17.066,0,0,0,.189,4.8,6.886,6.886,0,0,0,1.794,3.588,5.3,5.3,0,0,0,4,1.432q5.476,0,11.345-4.076a61.117,61.117,0,0,0,11.046-9.913,106.146,106.146,0,0,0,9.3-12.179,101.518,101.518,0,0,0,6.357-10.842q2.006-6.042,2.848-9.646c.456-1.385.8-2.565,1.039-3.588a3.568,3.568,0,0,1,1.338-1.983,3.39,3.39,0,0,1,2.172-.834,2.928,2.928,0,0,1,3.21,2.817,31.188,31.188,0,0,1,.252,4.91c-.173,1.778-.456,3.871-.85,6.341-.393,2.439-.944,5.13-1.621,8.009q-1.652,7.01-5.146,17.75-3.493,10.763-8.544,22.47a13.6,13.6,0,0,1,2.109.661,9.525,9.525,0,0,1,2.25,1.243A7.507,7.507,0,0,1,96.3,80.168a2.4,2.4,0,0,1,.472,2.093,3.752,3.752,0,0,1-1.4,1.873,3.566,3.566,0,0,1-2.109.944,2.683,2.683,0,0,1-1.574-.566,6.6,6.6,0,0,0-1.117-.834,20.68,20.68,0,0,0-3.005-1.621,184.994,184.994,0,0,1-9.064,16.727,90,90,0,0,1-10.637,14.146,51.5,51.5,0,0,1-12.053,9.819,26.167,26.167,0,0,1-13.328,3.682c-5.287,0-8.985-1.526-11.094-4.626q-3.139-4.626-1.353-12.179a33.608,33.608,0,0,1,3.792-9.253,56.411,56.411,0,0,1,6.294-8.592,55.063,55.063,0,0,1,7.962-7.349,46.775,46.775,0,0,1,9.032-5.4,52.35,52.35,0,0,1,12.573-3.682,72.353,72.353,0,0,1,10.212-.834,14.863,14.863,0,0,0,1.054-2.47,19.468,19.468,0,0,1,.787-2.061q2.219-5.476,4.154-10.779c1.275-3.525,2.5-6.971,3.682-10.385M77.625,80.168A43.909,43.909,0,0,0,64.486,82.26,49.523,49.523,0,0,0,51.96,88.114,42.763,42.763,0,0,0,41.7,97.461,31.468,31.468,0,0,0,35.627,110q-1.227,5.1.755,7.931c1.306,1.9,3.792,2.832,7.443,2.832q4.91,0,9.74-4.06a57.465,57.465,0,0,0,9.284-10.087A108.465,108.465,0,0,0,71.063,93.5c2.5-4.721,4.7-9.158,6.562-13.328" transform="translate(433.09 62.761)" fill="#c6ac9d"/>
      </g>
    </g>
  </g>
</svg>
