<svg xmlns="http://www.w3.org/2000/svg" xmlns:xlink="http://www.w3.org/1999/xlink" width="173" height="60.575" viewBox="0 0 173 60.575">
  <defs>
    <clipPath id="clip-path">
      <rect id="Rectangle_50" data-name="Rectangle 50" width="64.898" height="60.565" fill="#c6ac9d"/>
    </clipPath>
    <clipPath id="clip-path-2">
      <rect id="Rectangle_51" data-name="Rectangle 51" width="64.898" height="60.576" fill="#c6ac9d"/>
    </clipPath>
  </defs>
  <g id="info-location-icon" transform="translate(-2547.5 -3388.712)">
    <g id="Group_129" data-name="Group 129" transform="translate(2602 3388.712)">
      <g id="Group_126" data-name="Group 126" transform="translate(0 0.01)">
        <g id="Group_125" data-name="Group 125" clip-path="url(#clip-path)">
          <path id="Path_18797" data-name="Path 18797" d="M1.695,74.626l16.341,3.653a1.676,1.676,0,0,0,2.129-1.706v-44.8a2.859,2.859,0,0,0-2.129-2.659L2.641,25.672A2.167,2.167,0,0,0,0,27.788V72.509a2.169,2.169,0,0,0,1.695,2.117" transform="translate(0 -18.64)" fill="#c6ac9d"/>
          <path id="Path_18798" data-name="Path 18798" d="M133.407,14.142a14.137,14.137,0,1,0-28.274,0c0,11.264,12.185,22.125,12.7,22.582a2.167,2.167,0,0,0,2.866,0c.519-.457,12.7-11.318,12.7-22.582m-14.137,5.213a5.213,5.213,0,1,1,5.182-5.213,5.2,5.2,0,0,1-5.182,5.213" transform="translate(-76.446 -0.01)" fill="#c6ac9d"/>
        </g>
      </g>
      <g id="Group_128" data-name="Group 128">
        <g id="Group_127" data-name="Group 127" clip-path="url(#clip-path-2)">
          <path id="Path_18799" data-name="Path 18799" d="M180.357,89.078a2.141,2.141,0,0,0,.472.052A2.168,2.168,0,0,0,183,86.963V42.242a2.169,2.169,0,0,0-1.7-2.117l-3.48-.778a17.184,17.184,0,0,1,.34,3.407c0,5.358-2.273,11.131-6.758,17.155a54.084,54.084,0,0,1-6.976,7.705,5.21,5.21,0,0,1-1.921,1.068V82.906a2.86,2.86,0,0,0,2.129,2.659Z" transform="translate(-118.166 -28.611)" fill="#c6ac9d"/>
          <path id="Path_18800" data-name="Path 18800" d="M103.133,68.238a5.188,5.188,0,0,1-1.922-1.068,54.09,54.09,0,0,1-6.976-7.7c-4.484-6.025-6.757-11.8-6.757-17.156a17.144,17.144,0,0,1,.376-3.572l-1.413.308c-.777.169-1.413,1.291-1.413,2.491V86.331A1.687,1.687,0,0,0,87.16,88.05L101,85.029a2.844,2.844,0,0,0,2.133-2.649Z" transform="translate(-61.826 -28.168)" fill="#c6ac9d"/>
        </g>
      </g>
    </g>
    <g id="Group_130" data-name="Group 130" transform="translate(1944.5 113)">
      <line id="Line_2" data-name="Line 2" x2="15" transform="translate(604.5 3310.5)" fill="none" stroke="#c6ac9d" stroke-linecap="round" stroke-width="3"/>
      <line id="Line_3" data-name="Line 3" x2="15" transform="translate(759.5 3310.5)" fill="none" stroke="#c6ac9d" stroke-linecap="round" stroke-width="3"/>
    </g>
  </g>
</svg>
