<svg xmlns="http://www.w3.org/2000/svg" width="429.327" height="34.488" viewBox="0 0 429.327 34.488">
  <path id="intro-title" d="M11.628-9.432H20.34v1.98c0,2.016-.18,4.428-1.908,5.292-1.224.648-.9,2.16.036,2.16h11.52c.936,0,1.26-1.512.036-2.16-1.692-.864-1.872-3.276-1.872-5.292v-10.44c0-2.016.18-4.284,1.872-5.184,1.224-.612.9-2.124-.036-2.124H18.468c-.936,0-1.26,1.512-.036,2.124,1.728.9,1.908,2.952,1.908,4.968v6.12H11.628v-5.9c0-2.016.18-4.284,1.872-5.184,1.224-.612.936-2.124-.036-2.124H1.944c-.936,0-1.26,1.512,0,2.124,1.692.9,1.872,2.952,1.872,4.968V-7.452c0,2.016-.18,4.428-1.872,5.292C.684-1.512,1.008,0,1.944,0h11.52c.972,0,1.26-1.512.036-2.16-1.692-.864-1.872-3.276-1.872-5.292ZM39.96-25.884a4.025,4.025,0,0,0-4.032,4.032,4.056,4.056,0,0,0,4.032,4.068,4.08,4.08,0,0,0,4.032-4.068A4.048,4.048,0,0,0,39.96-25.884ZM34.2,0H45.756c1.044,0,1.08-1.62,0-2.16-1.008-.468-1.872-1.332-1.872-5.292l-.036-9.108c0-.468-.18-.612-.576-.612a10.051,10.051,0,0,0-1.548.252L34.2-15.048c-1.4.324-1.26,1.98.108,1.728,1.476-.288,1.764.252,1.764,2.52v3.348c.036,4.1-1.116,4.968-1.872,5.328C33.12-1.62,33.12-.072,34.2,0ZM52.9-4.6a2.294,2.294,0,0,0-2.3,2.3A2.326,2.326,0,0,0,52.9,0a2.294,2.294,0,0,0,2.3-2.3A2.263,2.263,0,0,0,52.9-4.6ZM81.4-25.668v2.736h21.78v-2.736H94.286l1.728-3.024A40.555,40.555,0,0,0,87.446-31l-.936,2.124c1.4.9,3.24,2.052,4.86,3.2ZM78.23-22.644l3.276-3.924a27.113,27.113,0,0,0-7.272-3.672L72.974-28.4A77.877,77.877,0,0,1,78.23-22.644Zm-.864,7.02,3.42-3.96a37.9,37.9,0,0,0-7.74-4.032L71.822-21.78A82.256,82.256,0,0,1,77.366-15.624Zm23.22-5.724H83.81v2.664h16.776Zm-16.776,6.8h16.776v-2.664H83.81Zm3.528,12.06c-2.88-.036-5.616-.576-6.408-2.664v-9.828H71.75v2.664h3.564v8.1A23.724,23.724,0,0,1,70.382-.936L73.55,3.492a21.494,21.494,0,0,0,4.86-6.336C80.39,1.116,84.35,2.088,88.6,2.3a131.06,131.06,0,0,0,14.076-.144l1.3-5.616A125.027,125.027,0,0,1,87.338-2.484ZM83.45-4.356h17.5v-8.676H83.45Zm5.544-6.012H95.33V-7.02H88.994Zm47.268-19.044H114.05v12.348h22.212Zm-5.688,4.824H119.738v-2.16h10.836Zm0,4.86H119.738V-22h10.836ZM129.062-2.88a4.357,4.357,0,0,1-.684-.036V-6.444h9.468V-9.252h-9.468v-3.1h12.348v-2.88h-31.32v2.88h13.068v8.316A10.644,10.644,0,0,1,118.8-6.8a27.052,27.052,0,0,0,.828-3.924l-5.652-.468c-.432,4.9-1.224,9.072-5.328,12.636l1.26,2.016A13.166,13.166,0,0,0,117.578-3.6c2.376,3.888,6.3,5.58,12.168,5.9a84.538,84.538,0,0,0,10.44-.072l1.368-5.8A75.343,75.343,0,0,1,129.062-2.88ZM146.7-13.392h31.536v-3.816H146.7ZM216.11-22.14H213.3v-8.28h-5.688v8.28H200.27v2.664h7.344V-10.4a36.028,36.028,0,0,0-4.752-6.192l-2.052,1.008c1.152,3.348,2.088,6.12,2.952,9.4l3.852-1.836v4.644c0,2.52-.648,2.736-5.184,2.016L201.818.864c6.3,4.32,11.484,2.268,11.484-2.232V-19.476h2.808ZM200.594-18.5h-5.148v-4.14h4.32v-2.664h-4.32v-5.04h-5.688v5.04h-4.32v2.664h4.32v4.14H183.89v2.664h16.7Zm.612,13.9c-1.62.36-3.564.684-5.616.972V-8.064h4.644v-2.664H195.59V-14.94H189.9v4.212h-5v2.664h5V-2.88c-2.376.288-4.644.5-6.552.612l1.116,5.256c5.292-.864,13.68-3.168,17.388-5.4Zm41.9-15.948c.972,4.068,2.916,7.128,7.092,8.172,2.952.756,4.392-2.16,2.772-7.236h-2.052c-.036,2.3-.5,2.34-1.116,2.052-.756-.36-1.476-1.152-2.052-2.988h5.076v-2.592h-5.688c-.144-.756-.252-1.656-.36-2.628a34.821,34.821,0,0,0,5.652-1.26l-3.06-3.744a43.989,43.989,0,0,1-9.936,3.42l-4.608-.756v11.88l-1.476.18a52.288,52.288,0,0,0,.468-7.488H228.1c.324-2.448.648-4.644.864-6.408l-4.788-.5c-.216,1.98-.468,4.356-.792,6.912h-2.088v2.592h1.764c-.684,5.112-1.44,10.512-2.088,14.112L225.326-5.8c.072-.468.18-.936.252-1.44l.9.864a22.869,22.869,0,0,1-5.364,7.956l1.332,1.728a20.469,20.469,0,0,0,6.768-6.84c.9,1.008,1.8,2.052,2.628,3.1l3.42-3.708a40.762,40.762,0,0,0-4.1-3.2,32.877,32.877,0,0,0,1.98-7.272l.828,3.168c.432-.108.9-.252,1.332-.4V3.168h5.256V.936H247V3.024h5.328V-12.1H236.162a33.972,33.972,0,0,0,7.848-3.564l-.756-1.98c-1.188.252-2.376.5-3.528.684v-3.6Zm-.468-2.592h-2.916v-1.98c.864-.036,1.764-.072,2.7-.144C242.462-24.552,242.57-23.832,242.642-23.148Zm-16.6,12.96c.54-3.348,1.152-7.164,1.656-10.764h1.4a50.459,50.459,0,0,1-1.548,11.484C227.054-9.72,226.55-9.972,226.046-10.188Zm14.508.684H247V-7.02h-6.444Zm0,5H247v2.844h-6.444Zm44.64,4.14a16.9,16.9,0,0,0,3.24-3.708l-3.564-1.3h4.284v-6.48H271.586a38.55,38.55,0,0,0-3.492-3.348,27.3,27.3,0,0,0,3.168-6.516v5.22h18V-27.324h-3.924v-3.024H280.8v3.024H279.65v-3.024h-4.536v3.024h-3.852v4.68L266.834-24.7l-1.224.936h-1.188l3.132-2.124A30.009,30.009,0,0,0,261.938-31l-1.692,1.332a56.421,56.421,0,0,1,2.88,5.9h-4.032v2.592h6.66A26.423,26.423,0,0,1,258.158-9l1.26,1.98a27.719,27.719,0,0,0,3.2-2.16V2.988h5.184v-14.04c.432.756.864,1.584,1.368,2.592l2.376-1.8v4.9h2.592l-1.08.756c.576,1.188,1.26,2.7,1.872,4.248H269.57V2.3H290.7V-.36Zm-8.568-22.788h-.972V-24.8h.972Zm3.1-1.656h1.008v1.656h-1.008Zm5.148,1.656h-1.044V-24.8h1.044Zm-8.244,4.14h-.972v-1.836h.972Zm3.1-1.836h1.008v1.836h-1.008Zm5.148,1.836h-1.044v-1.836h1.044ZM270.794-12.96h19.044v-2.592H270.794Zm6.3,3.564h6.588v1.62h-6.588Zm-1.332,4.032h7.524a29.532,29.532,0,0,1-1.44,5h-4.284l2.412-1.368A17.052,17.052,0,0,0,275.762-5.364Zm49.68,2.556,2.844-3.276a18.988,18.988,0,0,1-3.924-4.068,29.494,29.494,0,0,0,2.412-11.7h1.3v-2.52h-6.264a32.091,32.091,0,0,0,1.116-5.472l-4.536-.468a48.25,48.25,0,0,1-1.728,11.268v-7.812h-4.68a20.681,20.681,0,0,0,2.052-2.88l-4.968-.756c-.108,1.368-.216,2.34-.36,3.636h-3.564v9.648h3.708c.612.684,1.152,1.3,1.764,2.052h-5.4v2.376h1.62c-.108,3.276-.576,5.76-2.052,7.92l-.108-.216v-9.9h-8.28v2.664h3.024v8.1a22.722,22.722,0,0,1-4.32,4l3.1,3.6A19.232,19.232,0,0,0,302.546-2.7c1.8,3.96,6.12,4.824,10.8,5a138.964,138.964,0,0,0,13.968-.144l1.224-5.292ZM304.994-26.136a23.178,23.178,0,0,0-6.912-4L296.858-28.3a72.093,72.093,0,0,1,5,5.544Zm4.248,3.024v-1.3h3.384v1.3Zm-4.608,3.78a24.132,24.132,0,0,0-7.02-4.1l-1.26,1.836a64.589,64.589,0,0,1,5.04,5.8Zm17.964-2.52a39.5,39.5,0,0,1-.612,7.308,28.5,28.5,0,0,1-1.62-5.832c.216-.468.4-.972.612-1.476Zm-13.356,2.2v-1.3h3.384v1.3ZM313.49-2.2a19.431,19.431,0,0,1-6.588-.972A11,11,0,0,0,310.61-9.36h2.124c-.036,1.008-.144,1.908-.252,2.736-.108.9-.648,1.08-2.7.648l-.576,1.728c2.628,2.16,6.624,2.412,7.308-1.8a47.014,47.014,0,0,0,.5-5.688H310.97a10.168,10.168,0,0,0,.072-1.044h7.02v-2.376h-4.9l.864-.792a14.323,14.323,0,0,0-1.584-1.26h3.564l-.324.756,1.512,1.044a10.52,10.52,0,0,0,1.44-1.8,36.743,36.743,0,0,0,1.728,7.488,19.529,19.529,0,0,1-4.608,5.8l1.152,1.548a17.348,17.348,0,0,0,4.968-3.96,18.816,18.816,0,0,0,2.7,3.6A102.145,102.145,0,0,1,313.49-2.2ZM343.658-25.56A23.756,23.756,0,0,0,337.61-31l-1.656,1.368c.864,1.4,1.944,3.24,3.024,5.256h-5.112v2.736h13.068v-2.736h-5.04Zm15.048,6.912v-1.8h5.112v-2.376h-5.112v-1.8h6.3v-2.52h-6.3v-3.24H353.45v3.24h-5.976v2.52h5.976v1.8h-5.112v2.376h5.112v1.8h-6.48v2.52h18.5v-2.52ZM346-19.26H334.91V-16.6H346Zm1.908,22.248h4.968v-6.12h6.372v1.044c0,1.584-.432,1.8-3.816,1.44l-.468,2.16c5.148,2.34,9.288,1.8,9.288-2.376V-14.688H347.906Zm-13-14.9H346V-14.58H334.91Zm24.336-.18v2.052h-6.372V-12.1ZM334.91,2.88h4.824V.468H341.5V2.88h4.824V-9.648H334.91Zm17.964-8.46V-7.6h6.372V-5.58Zm-13.14-1.476H341.5v4.932h-1.764ZM396.65-22.1v2.448L393.3-22.284A44.524,44.524,0,0,1,390.17-17.1v-4.644a27.764,27.764,0,0,0,7.632-5.112l-5.076-3.636-2.16,1.044h-14.8v2.592H390.6a26.185,26.185,0,0,1-3.1,3.672l-2.808-.5v5.436a31.014,31.014,0,0,0-6.12-4.032L377.462-21.1v-1.3h-5.184V3.024h5.184V1.08H396.65V3.024h5.184V-22.1Zm-14.9,8.064,2.952-3.024v2.844a55.5,55.5,0,0,1-7.236,3.42v-9.36C378.974-18.216,380.378-16.164,381.746-14.04ZM396.65-18v6.516a35.439,35.439,0,0,0-5.076-3.348A24.737,24.737,0,0,0,396.65-18ZM377.462-1.548V-8.676l1.656,2.844a31.958,31.958,0,0,0,5.58-4.86v2.664c0,1.656-.5,1.836-3.6,1.62l-.468,2.16c4.824,2.808,9.54,1.836,9.54-2.628v-4.68c1.3,1.692,2.592,3.528,3.78,5.256l2.7-2.988v7.74ZM429.806-25.74H419.222c-1.08,0-.828,1.62,0,1.836.684.144,1.512,1.836,1.872,3.888l1.26,12.276c.144.648,1.224,1.008,2.268,1.008,1.008,0,1.98-.324,2.052-1.008L427.9-19.872c.144-1.368.756-3.384,1.836-4.032C430.922-24.66,430.382-25.74,429.806-25.74ZM424.442-6.012a2.981,2.981,0,0,0-2.988,2.988,2.981,2.981,0,0,0,2.988,2.988,2.981,2.981,0,0,0,2.988-2.988A2.981,2.981,0,0,0,424.442-6.012Z" transform="translate(-1.116 30.996)" fill="#896b5f"/>
</svg>
